<?xml version="1.0" encoding="UTF-8"?>
<svg width="1200pt" height="1200pt" version="1.1" viewBox="0 0 1200 1200" xmlns="http://www.w3.org/2000/svg">
 <path d="m981.84 218.16c-210.89-210.89-552.79-210.89-763.69 0-210.89 210.89-210.89 552.79 0 763.69 210.89 210.89 552.79 210.89 763.69 0 210.89-210.89 210.89-552.79 0-763.69zm-215.29 164.39c33.516-33.516 84.422 17.391 50.906 50.906l-166.55 166.55 166.55 166.55c33.516 33.516-17.391 84.422-50.906 50.906l-166.55-166.55-166.55 166.55c-33.516 33.516-84.422-17.391-50.906-50.906l166.55-166.55-166.55-166.55c-33.516-33.516 17.391-84.422 50.906-50.906l166.55 166.55z" fill-rule="evenodd" fill="currentColor"/>
</svg>
