<?xml version="1.0" encoding="UTF-8"?>
<svg width="1200pt" height="1200pt" version="1.1" viewBox="0 0 1200 1200" xmlns="http://www.w3.org/2000/svg">
 <path d="m1037.3 204.74c-22.5-51.844-73.781-85.219-130.22-84.75h-614.26c-56.344 0-107.39 33.234-130.22 84.75-22.828 51.516-13.125 111.66 24.75 153.37l291.61 321.52-0.046875 265.13c0 10.312 5.4844 19.828 14.438 24.984l184.22 106.36v0.046876c8.9531 5.1562 19.969 5.1562 28.875 0 8.9531-5.2031 14.438-14.719 14.438-25.031v-371.48l291.61-321.52c38.297-41.531 48.047-101.91 24.797-153.37zm-67.5 114.61-299.11 329.76c-4.8281 5.2969-7.5 12.234-7.5 19.406v332.58l-126.47-73.031v-259.55c0-7.1719-2.6719-14.109-7.5-19.406l-299.11-329.76c-22.5-24.844-28.266-60.609-14.719-91.219 13.594-30.656 43.969-50.391 77.438-50.391h614.26c33.469 0 63.844 19.734 77.438 50.391 13.547 30.609 7.7812 66.375-14.719 91.219z" fill="currentColor"/>
</svg>
