<?xml version="1.0" encoding="UTF-8"?>
<svg width="1200pt" height="1200pt" version="1.1" viewBox="0 0 1200 1200" xmlns="http://www.w3.org/2000/svg">
 <path d="m407.48 46.875c29.531 0 57.844 11.719 78.656 32.578 20.906 20.906 32.578 49.219 32.578 78.703v883.64c0 29.531-11.719 57.844-32.578 78.703s-49.172 32.578-78.656 32.578h-139.97c-29.531 0-57.844-11.719-78.656-32.578-20.906-20.906-32.578-49.219-32.578-78.703v-883.64c0-29.531 11.719-57.844 32.578-78.703s49.172-32.578 78.656-32.578zm0 56.25h-139.97c-14.578 0-28.594 5.8125-38.906 16.125-10.359 10.312-16.125 24.281-16.125 38.906v883.64c0 14.625 5.7656 28.594 16.125 38.906 10.312 10.312 24.281 16.125 38.906 16.125h139.97c14.578 0 28.594-5.8125 38.906-16.125 10.359-10.312 16.125-24.281 16.125-38.906v-883.64c0-14.625-5.7656-28.594-16.125-38.906-10.312-10.312-24.281-16.125-38.906-16.125zm525-56.25c29.531 0 57.844 11.719 78.656 32.578 20.906 20.906 32.578 49.219 32.578 78.703v883.64c0 29.531-11.719 57.844-32.578 78.703s-49.172 32.578-78.656 32.578h-139.97c-29.531 0-57.844-11.719-78.656-32.578-20.906-20.906-32.578-49.219-32.578-78.703v-883.64c0-29.531 11.719-57.844 32.578-78.703s49.172-32.578 78.656-32.578zm0 56.25h-139.97c-14.578 0-28.594 5.8125-38.906 16.125-10.359 10.312-16.125 24.281-16.125 38.906v883.64c0 14.625 5.7656 28.594 16.125 38.906 10.312 10.312 24.281 16.125 38.906 16.125h139.97c14.578 0 28.594-5.8125 38.906-16.125 10.359-10.312 16.125-24.281 16.125-38.906v-883.64c0-14.625-5.7656-28.594-16.125-38.906-10.312-10.312-24.281-16.125-38.906-16.125z" fill-rule="evenodd" fill="currentColor"/>
</svg>
