<?xml version="1.0" encoding="UTF-8"?>
<svg width="1200pt" height="1200pt" version="1.1" viewBox="0 0 1200 1200" xmlns="http://www.w3.org/2000/svg">
 <path d="m846.52 249.94 66.094 1.8281c-184.64-165.47-467.16-158.72-643.45 17.531-182.76 182.76-182.76 479.11 0 661.82 182.76 182.76 479.11 182.76 661.87 0 81.609-81.609 133.26-193.26 136.87-316.92 0.5625-19.641 29.719-13.969 57.609-13.969 8.1562 0 14.625 6.6562 14.391 14.766-7.875 291.79-246.89 525.24-539.81 525.24-298.22 0-540-241.78-540-540 0-400.18 420.37-659.21 776.39-485.63 42.234 20.578 81.375 46.594 116.58 77.062-6.0938-73.781-14.625-63.656 52.078-69.141 7.9219-0.65625 14.859 5.25 15.516 13.172l12.469 151.26h-0.09375c1.7344 21.328-15.375 39.375-36.75 38.812l-151.74-4.1719c-20.109-0.5625-13.594-30.188-12.844-57.703 0.23438-7.875 6.8906-14.203 14.812-13.969zm-210.42 49.875c0-7.9219-6.4688-14.391-14.391-14.391-27.703 0-57.609-5.7188-57.609 14.391v300.47c0 19.875 16.125 36 36 36h225.47c7.9219 0 14.391-6.4688 14.391-14.391 0-27.703 5.7188-57.609-14.391-57.609l-189.47-0.046875z" fill="currentColor"/>
</svg>
