<?xml version="1.0" encoding="UTF-8"?>
<svg width="1200pt" height="1200pt" version="1.1" viewBox="0 0 1200 1200" xmlns="http://www.w3.org/2000/svg">
 <path d="m988.6 488.34c37.359 24.891 59.766 66.797 59.766 111.66 0 44.906-22.406 86.766-59.766 111.66l-628.36 418.92c-41.156 27.469-94.125 30-137.76 6.6562-43.641-23.344-70.875-68.812-70.875-118.31v-837.84c0-49.5 27.234-94.969 70.875-118.31s96.609-20.812 137.76 6.6562zm-31.219 46.781-628.36-418.92c-23.906-15.938-54.656-17.438-80.016-3.8438-25.359 13.594-41.156 39.984-41.156 68.719v837.84c0 28.781 15.844 55.172 41.156 68.719 25.359 13.594 56.109 12.094 80.016-3.8438l628.36-418.92c21.703-14.484 34.734-38.812 34.734-64.875s-13.031-50.391-34.734-64.875z" fill-rule="evenodd" fill="currentColor"/>
</svg>
