<?xml version="1.0" encoding="UTF-8"?>
<svg width="1200pt" height="1200pt" version="1.1" viewBox="0 0 1200 1200" xmlns="http://www.w3.org/2000/svg">
 <path d="m287.48 948.52c184.55 165.37 467.11 158.76 643.45-17.578 81.609-81.609 133.26-193.26 136.87-316.92 0.5625-19.688 29.672-14.016 57.609-14.016 8.1562 0 14.625 6.6562 14.391 14.766-10.594 393.1-425.53 641.81-776.21 470.81-42.234-20.578-81.375-46.594-116.58-77.062 6.0938 73.781 14.625 63.656-52.078 69.141-7.875 0.65625-14.859-5.25-15.516-13.172l-12.469-155.21c0.5625-19.781 17.062-35.391 36.844-34.875l151.74 4.1719c20.109 0.5625 13.594 30.188 12.844 57.703-0.23438 7.9219-6.8438 14.203-14.766 14.016zm558.94-698.81c-7.9219-0.23438-14.578 6.0938-14.766 14.016-0.75 27.562-7.2656 57.188 12.844 57.703l151.74 4.1719c19.781 0.5625 36.281-15.094 36.844-34.875l-12.516-155.26c-0.65625-7.9219-7.6406-13.828-15.516-13.172-66.656 5.4844-58.125-4.6406-52.078 69.141-35.203-30.469-74.391-56.484-116.58-77.062-350.68-171-765.61 77.766-776.21 470.86-0.23438 8.1094 6.2344 14.766 14.391 14.766 27.891 0 57.047 5.6719 57.609-13.969 3.6094-123.71 55.266-235.31 136.87-316.92 176.29-176.34 458.81-183.05 643.45-17.625z" fill-rule="evenodd" fill="currentColor"/>
</svg>
