<?xml version="1.0" encoding="UTF-8"?>
<svg width="1200pt" height="1200pt" version="1.1" viewBox="0 0 1200 1200" xmlns="http://www.w3.org/2000/svg">
 <path d="m1113.4 433.36c112.41 346.26-144.89 706.69-513.56 706.69-298.18 0-539.9-241.74-539.9-539.9 0-423.28 463.78-677.48 819.32-461.95 6.9375 4.2188 9.0469 13.219 4.6406 20.109-50.156 78.141-10.453 34.312-152.06-7.2656-298.22-87.516-599.9 136.18-599.9 449.11 0 258.42 209.48 467.9 467.9 467.9 319.45 0 541.82-311.95 445.55-611.48-6.0469-18.703 23.297-23.062 49.547-32.297 7.6875-2.7188 15.938 1.3594 18.469 9.0938zm-104.53-115.64c5.1094-6.0469 4.3594-15.188-1.6875-20.297-21.094-17.812-40.172-41.438-53.156-26.109l-396.56 468.05-156.66-180.89c-5.2031-6-14.297-6.6562-20.297-1.4531-20.859 18.047-47.156 33.234-33.984 48.422l183.1 211.4c14.391 17.344 40.594 18.609 55.594 0.89062z" fill-rule="evenodd" fill="currentColor"/>
</svg>
